<?xml version="1.0" encoding="utf-8"?>
<svg version="1.1" xmlns:xlink="http://www.w3.org/1999/xlink" width="27px" height="19px" xmlns="http://www.w3.org/2000/svg">
  <g transform="matrix(1 0 0 1 -618 -152 )">
    <path d="M 5.6599634369287 16.0626902008521  C 5.86837294332724 15.9162101846216  5.97257769652651 15.7427470075066  5.97257769652651 15.542300669507  C 5.97257769652651 15.3418543315074  5.86837294332724 15.1683911543924  5.6599634369287 15.0219111381619  C 5.45155393053016 14.8754311219314  5.20475319926874 14.8021911138162  4.91956124314442 14.8021911138162  C 4.63436928702011 14.8021911138162  4.38756855575868 14.8754311219314  4.17915904936015 15.0219111381619  C 3.97074954296161 15.1683911543924  3.86654478976234 15.3418543315074  3.86654478976234 15.542300669507  C 3.86654478976234 15.7427470075066  3.97074954296161 15.9162101846216  4.17915904936015 16.0626902008521  C 4.38756855575868 16.2091702170826  4.63436928702011 16.2824102251978  4.91956124314442 16.2824102251978  C 5.20475319926874 16.2824102251978  5.45155393053016 16.2091702170826  5.6599634369287 16.0626902008521  Z M 13.7138939670932 9.36122945830797  C 14.5420475319927 9.94329478596064  15.4936014625229 10.3846622032867  16.5685557586837 10.6853317102861  L 5.3473491773309 18.5721241631163  C 4.94149908592322 18.8573747210388  4.44789762340037 19  3.86654478976234 19  C 3.29616087751371 19  2.79707495429616 18.8573747210388  2.36928702010969 18.5721241631163  L 0.625228519195612 17.323189287888  C 0.208409506398537 17.045648204504  0 16.6987218502739  0 16.2824102251978  C 0 15.8738080746602  0.208409506398537 15.5230269831609  0.625228519195612 15.2300669506999  L 11.8299817184644 7.35483870967742  C 12.2577696526508 8.11036721444512  12.8857404021938 8.77916413065531  13.7138939670932 9.36122945830797  Z M 26.8601462522852 5.36579427875837  C 26.9533820840951 5.44288902414283  27 5.5392574558734  27 5.65489957395009  C 27 5.95556908094948  26.8738574040219 6.36417123148712  26.6215722120658 6.880706025563  C 26.1060329067642 7.91377561371475  25.2038391224863 8.75218096977074  23.9149908592322 9.39592209373098  C 22.6261425959781 10.0396632176912  21.2084095063985 10.3615337796713  19.6617915904936 10.3615337796713  C 17.6325411334552 10.3615337796713  15.8967093235832 9.85463582876851  14.4542961608775 8.84083992696287  C 13.0118829981718 7.82704402515723  12.290676416819 6.60701967944816  12.290676416819 5.18076688983567  C 12.290676416819 3.75451410022317  13.0118829981718 2.5344897545141  14.4542961608775 1.52069385270846  C 15.8967093235832 0.506897950902819  17.6325411334552 0  19.6617915904936 0  C 20.2979890310786 0  20.9643510054845 0.0636031649421799  21.6608775137111 0.190809494826538  C 22.3574040219378 0.318015824710895  22.9469835466179 0.497261107729763  23.4296160877514 0.728545343883141  C 23.6051188299817 0.813349563806044  23.6928702010969 0.921282207344286  23.6928702010969 1.05234327449787  C 23.6928702010969 1.18340434165145  23.6051188299817 1.29133698518969  23.4296160877514 1.3761412051126  L 18.6087751371115 3.33049300060864  L 18.6087751371115 5.92087644552648  L 21.7842778793419 7.15824710894705  C 21.8391224862889 7.13511868533171  22.27239488117 6.9481639277744  23.0840950639854 6.59738283627511  C 23.8957952468007 6.24660174477581  24.6389396709324 5.93436802596876  25.3135283363803 5.66068167985392  C 25.9881170018282 5.38699533373909  26.3747714808044 5.25015216068168  26.473491773309 5.25015216068168  C 26.6380255941499 5.25015216068168  26.7669104204753 5.28869953337391  26.8601462522852 5.36579427875837  Z " fill-rule="nonzero" fill="#555555" stroke="none" transform="matrix(1 0 0 1 618 152 )" />
  </g>
</svg>