<?xml version="1.0" encoding="utf-8"?>
<svg version="1.1" xmlns:xlink="http://www.w3.org/1999/xlink" width="33px" height="29px" xmlns="http://www.w3.org/2000/svg">
  <g transform="matrix(1 0 0 1 -1176 -205 )">
    <path d="M 11.9387019230769 24.5099431818182  C 12.4411057692308 25.0317234848485  12.6923076923077 25.6496212121212  12.6923076923077 26.3636363636364  C 12.6923076923077 27.0776515151515  12.4411057692308 27.6955492424242  11.9387019230769 28.2173295454545  C 11.4362980769231 28.7391098484848  10.8413461538462 29  10.1538461538462 29  C 9.46634615384616 29  8.87139423076923 28.7391098484848  8.36899038461539 28.2173295454545  C 7.86658653846154 27.6955492424242  7.61538461538462 27.0776515151515  7.61538461538462 26.3636363636364  C 7.61538461538462 25.6496212121212  7.86658653846154 25.0317234848485  8.36899038461539 24.5099431818182  C 8.87139423076923 23.9881628787879  9.46634615384616 23.7272727272727  10.1538461538462 23.7272727272727  C 10.8413461538462 23.7272727272727  11.4362980769231 23.9881628787879  11.9387019230769 24.5099431818182  Z M 29.7079326923077 24.5099431818182  C 30.2103365384615 25.0317234848485  30.4615384615385 25.6496212121212  30.4615384615385 26.3636363636364  C 30.4615384615385 27.0776515151515  30.2103365384615 27.6955492424242  29.7079326923077 28.2173295454545  C 29.2055288461538 28.7391098484848  28.6105769230769 29  27.9230769230769 29  C 27.2355769230769 29  26.640625 28.7391098484848  26.1382211538462 28.2173295454545  C 25.6358173076923 27.6955492424242  25.3846153846154 27.0776515151515  25.3846153846154 26.3636363636364  C 25.3846153846154 25.6496212121212  25.6358173076923 25.0317234848485  26.1382211538462 24.5099431818182  C 26.640625 23.9881628787879  27.2355769230769 23.7272727272727  27.9230769230769 23.7272727272727  C 28.6105769230769 23.7272727272727  29.2055288461538 23.9881628787879  29.7079326923077 24.5099431818182  Z M 32.6231971153846 3.02769886363636  C 32.8743990384615 3.28858901515151  33 3.59753787878787  33 3.95454545454545  L 33 14.5  C 33 14.8295454545455  32.8909254807692 15.1213304924242  32.6727764423077 15.3753551136364  C 32.4546274038462 15.6293797348485  32.1868990384615 15.7769886363636  31.8695913461538 15.8181818181818  L 11.1652644230769 18.3309659090909  C 11.3371394230769 19.1548295454545  11.4230769230769 19.6354166666667  11.4230769230769 19.7727272727273  C 11.4230769230769 19.9924242424242  11.2644230769231 20.4318181818182  10.9471153846154 21  L 29.1923076923077 21  C 29.5360576923077 21.0909090909091  29.8335336538462 21.2213541666667  30.0847355769231 21.4822443181818  C 30.3359375 21.743134469697  30.4615384615385 22.0520833333333  30.4615384615385 22.4090909090909  C 30.4615384615385 22.7660984848485  30.3359375 23.0750473484848  30.0847355769231 23.3359375  C 29.8335336538462 23.5968276515152  29.5360576923077 23.7272727272727  29.1923076923077 23.7272727272727  L 8.88461538461539 23.7272727272727  C 8.54086538461539 23.7272727272727  8.24338942307692 23.5968276515152  7.9921875 23.3359375  C 7.74098557692308 23.0750473484848  7.61538461538462 22.7660984848485  7.61538461538462 22.4090909090909  C 7.61538461538462 22.2580492424242  7.66826923076923 22.0417850378788  7.77403846153846 21.7602982954545  C 7.87980769230769 21.4788115530303  7.98557692307692 21.2316524621212  8.09134615384615 21.0188210227273  C 8.19711538461539 20.8059895833333  8.33924278846154 20.5313683712121  8.51772836538462 20.1949573863636  C 8.69621394230769 19.8585464015151  8.79867788461539 19.6560132575758  8.82512019230769 19.5873579545455  L 5.31490384615385 2.63636363636364  L 1.26923076923077 2.63636363636364  C 0.925480769230769 2.63636363636364  0.628004807692308 2.50591856060606  0.376802884615385 2.24502840909091  C 0.125600961538462 1.98413825757576  0 1.67518939393939  0 1.31818181818182  C 0 0.961174242424241  0.125600961538462 0.652225378787875  0.376802884615385 0.391335227272729  C 0.628004807692308 0.130445075757573  0.925480769230769 0  1.26923076923077 0  L 6.34615384615385 0  C 6.55769230769231 0  6.74609375 0.044625946969695  6.91135817307692 0.133877840909091  C 7.07662259615385 0.223129734848485  7.20552884615385 0.329545454545454  7.29807692307692 0.453125  C 7.390625 0.576704545454546  7.4765625 0.744910037878783  7.55588942307692 0.957741477272729  C 7.63521634615385 1.17057291666666  7.68810096153846 1.34907670454545  7.71454326923077 1.49325284090909  C 7.74098557692308 1.63742897727273  7.77734375 1.83996212121212  7.82361778846154 2.10085227272727  C 7.86989182692308 2.36174242424242  7.89963942307692 2.54024621212121  7.91286057692308 3  L 31.7307692307692 3  C 32.0745192307692 2.63636363636364  32.3719951923077 2.76680871212121  32.6231971153846 3.02769886363636  Z " fill-rule="nonzero" fill="#7f7f7f" stroke="none" transform="matrix(1 0 0 1 1176 205 )" />
  </g>
</svg>