<?xml version="1.0" encoding="utf-8"?>
<svg version="1.1" xmlns:xlink="http://www.w3.org/1999/xlink" width="30px" height="33px" xmlns="http://www.w3.org/2000/svg">
  <g transform="matrix(1 0 0 1 -1337 -203 )">
    <path d="M 27.8571428571429 21.9856020942408  C 29.2857142857143 23.3965968586387  30 25.0883507853403  30 27.0608638743456  C 30 28.7454188481675  29.4357142857143 30.1564136125654  28.3071428571429 31.2938481675393  C 27.1785714285714 32.4312827225131  25.7785714285714 33  24.1071428571429 33  C 22.1785714285714 33  20.5 32.2801047120419  19.0714285714286 30.8403141361257  L 2.42142857142857 14.0811518324607  C 0.807142857142857 12.4253926701571  0 10.4744764397906  0 8.22840314136126  C 0 5.93913612565445  0.785714285714286 3.99541884816754  2.35714285714286 2.39725130890052  C 3.92857142857143 0.799083769633508  5.85 0  8.12142857142857 0  C 10.3785714285714 0  12.3285714285714 0.813481675392665  13.9714285714286 2.44044502617801  L 26.9357142857143 15.5281413612565  C 27.0785714285714 15.6721204188482  27.15 15.830497382199  27.15 16.0032722513089  C 27.15 16.2336387434555  26.9321428571429 16.568390052356  26.4964285714286 17.0075261780105  C 26.0607142857143 17.4466623036649  25.7285714285714 17.6662303664921  25.5 17.6662303664921  C 25.3142857142857 17.6662303664921  25.15 17.5942408376963  25.0071428571429 17.4502617801047  L 12.0214285714286 4.34096858638743  C 10.8928571428571 3.23232984293193  9.6 2.67801047120419  8.14285714285714 2.67801047120419  C 6.62857142857143 2.67801047120419  5.35 3.21793193717277  4.30714285714286 4.29777486910995  C 3.26428571428572 5.37761780104712  2.74285714285714 6.68062827225131  2.74285714285714 8.20680628272251  C 2.74285714285714 9.71858638743456  3.28571428571429 11.0215968586387  4.37142857142857 12.1158376963351  L 21 28.8965968586387  C 21.9 29.803664921466  22.9357142857143 30.2571989528796  24.1071428571429 30.2571989528796  C 25.0214285714286 30.2571989528796  25.7785714285714 29.9548429319372  26.3785714285714 29.3501308900524  C 26.9785714285714 28.7454188481675  27.2785714285714 27.9823298429319  27.2785714285714 27.0608638743456  C 27.2785714285714 25.8802356020942  26.8285714285714 24.836387434555  25.9285714285714 23.9293193717278  L 13.4785714285714 11.3815445026178  C 13.1071428571429 11.0359947643979  12.6785714285714 10.863219895288  12.1928571428571 10.863219895288  C 11.7785714285714 10.863219895288  11.4357142857143 11  11.1642857142857 11.2735602094241  C 10.8928571428571 11.5471204188482  10.7571428571429 11.8926701570681  10.7571428571429 12.3102094240838  C 10.7571428571429 12.770942408377  10.9357142857143 13.1956806282723  11.2928571428571 13.5844240837696  L 20.0785714285714 22.4391361256545  C 20.2214285714286 22.5831151832461  20.2928571428571 22.7414921465969  20.2928571428571 22.9142670157068  C 20.2928571428571 23.1446335078534  20.0714285714286 23.4829842931937  19.6285714285714 23.9293193717278  C 19.1857142857143 24.3756544502618  18.85 24.5988219895288  18.6214285714286 24.5988219895288  C 18.45 24.5988219895288  18.2928571428571 24.526832460733  18.15 24.3828534031414  L 9.36428571428572 15.5281413612565  C 8.46428571428571 14.6498691099476  8.01428571428571 13.5772251308901  8.01428571428571 12.3102094240838  C 8.01428571428571 11.1295811518325  8.42142857142857 10.1289267015707  9.23571428571429 9.30824607329843  C 10.05 8.48756544502618  11.0428571428571 8.07722513089005  12.2142857142857 8.07722513089005  C 13.4714285714286 8.07722513089005  14.5357142857143 8.53075916230366  15.4071428571429 9.43782722513089  L 27.8571428571429 21.9856020942408  Z " fill-rule="nonzero" fill="#7f7f7f" stroke="none" transform="matrix(1 0 0 1 1337 203 )" />
  </g>
</svg>